<svg xmlns="http://www.w3.org/2000/svg" xmlns:xlink="http://www.w3.org/1999/xlink" viewBox="0 0 1280 720"><defs><style>.cls-1,.cls-8,.cls-9{fill:none;}.cls-2{clip-path:url(#clip-path);}.cls-3{fill:url(#linear-gradient);}.cls-4{fill:url(#linear-gradient-2);}.cls-5{fill:url(#linear-gradient-3);}.cls-6{fill:url(#linear-gradient-4);}.cls-7{fill:url(#linear-gradient-5);}.cls-8{stroke:#fff;stroke-width:1.35px;}.cls-8,.cls-9{stroke-miterlimit:10;}.cls-9{stroke:#ff0095;stroke-width:1.34px;}.cls-10{fill:url(#linear-gradient-6);}.cls-11,.cls-15,.cls-19,.cls-21,.cls-23{font-size:19px;}.cls-11{fill:#ff0095;}.cls-11,.cls-24{font-family:Lato-Regular, Lato;}.cls-12{letter-spacing:-0.02em;}.cls-13{letter-spacing:0em;}.cls-14{letter-spacing:-0.02em;}.cls-15,.cls-19,.cls-21,.cls-23,.cls-24,.cls-35,.cls-38{fill:#fff;}.cls-15,.cls-19,.cls-21,.cls-23{font-family:Lato-Bold, Lato;font-weight:700;}.cls-15{letter-spacing:0.01em;}.cls-16{letter-spacing:0.02em;}.cls-17{letter-spacing:0.02em;}.cls-18{letter-spacing:0.03em;}.cls-19{letter-spacing:0em;}.cls-20{letter-spacing:0.01em;}.cls-21{letter-spacing:0.02em;}.cls-22{letter-spacing:0.01em;}.cls-23{letter-spacing:0.02em;}.cls-24{font-size:13px;letter-spacing:0.01em;}.cls-25{letter-spacing:0.02em;}.cls-26{letter-spacing:0em;}.cls-27{letter-spacing:0.02em;}.cls-28{letter-spacing:0.03em;}.cls-29{letter-spacing:0.02em;}.cls-30{letter-spacing:0.02em;}.cls-31{letter-spacing:0.01em;}.cls-32{letter-spacing:0em;}.cls-33{letter-spacing:0.01em;}.cls-34{letter-spacing:0.02em;}.cls-35{font-size:52px;letter-spacing:0.02em;}.cls-35,.cls-38{font-family:Lato-Black, Lato;font-weight:800;}.cls-36{letter-spacing:0.03em;}.cls-37{letter-spacing:0.02em;}.cls-38{font-size:24.04px;letter-spacing:0.01em;}.cls-39{letter-spacing:0.02em;}.cls-40{letter-spacing:-0.03em;}.cls-41{letter-spacing:0.03em;}.cls-42{letter-spacing:-0.02em;}</style><clipPath id="clip-path"><rect class="cls-1" width="1280" height="720"/></clipPath><linearGradient id="linear-gradient" x1="887.09" y1="121.91" x2="392.91" y2="977.85" gradientUnits="userSpaceOnUse"><stop offset="0" stop-color="#ff0095"/><stop offset="0.25" stop-color="#bd0099"/><stop offset="0.51" stop-color="#80009c"/><stop offset="0.73" stop-color="#54009f"/><stop offset="0.9" stop-color="#3800a0"/><stop offset="1" stop-color="#2e00a1"/></linearGradient><linearGradient id="linear-gradient-2" x1="570.04" y1="-242.33" x2="1136.13" y2="738.18" gradientTransform="matrix(-1, 0, 0, 1, 1613, 0)" gradientUnits="userSpaceOnUse"><stop offset="0" stop-color="#ff0095"/><stop offset="0.33" stop-color="#af009a"/><stop offset="0.65" stop-color="#6a009e"/><stop offset="0.88" stop-color="#3f00a0"/><stop offset="1" stop-color="#2e00a1"/></linearGradient><linearGradient id="linear-gradient-3" x1="1064.54" y1="-348.59" x2="511.02" y2="610.15" xlink:href="#linear-gradient"/><linearGradient id="linear-gradient-4" x1="1079.37" y1="-489.9" x2="614.36" y2="395.63" gradientTransform="matrix(0.89, 0.08, -0.09, 1, 193.04, -60.71)" xlink:href="#linear-gradient"/><linearGradient id="linear-gradient-5" x1="928.44" y1="264.83" x2="394.07" y2="1190.37" xlink:href="#linear-gradient"/><linearGradient id="linear-gradient-6" x1="63.56" y1="97" x2="195.4" y2="97" gradientUnits="userSpaceOnUse"><stop offset="0" stop-color="#ff0095"/><stop offset="1" stop-color="#2e00a1"/></linearGradient></defs><title>abstract-background-website-landing-page</title><g id="Background"><g class="cls-2"><rect class="cls-3" y="348.76" width="1280" height="402.24"/><path class="cls-4" d="M1280,379.48c-170.11,174-374.06,65.33-439.76,34.07-151.35-72-292.67-94.55-469.86,7C34.88,612.76-75.85,384.14-75.85,384.14V145.24h1790.1S1463.94,191.32,1280,379.48Z"/><path class="cls-5" d="M-.47,309.88S194.84,483.64,485,345.4,997,72.76,1230.22,203.32s408.65-33.6,408.65-33.6V-17H-.47Z"/><path class="cls-6" d="M675.24,186.73c271.5-108.53,454.07-212.49,656-70.29,196.27,138.24,383.91-15.56,383.91-15.56l15.75-185.55L201.34-217.75S293.2,339.45,675.24,186.73Z"/><path class="cls-7" d="M1280,467.8s-93.87,289-477.87,121.92S275.91,532.12,136.53,679C17.62,804.32-16.12,816.28-137.48,883.48H1280Z"/></g></g></svg>